<svg height="511pt" viewBox="0 0 511 511.99965" width="511pt" xmlns="http://www.w3.org/2000/svg"><path d="m512.496094 256c0-68.378906-26.628906-132.664062-74.980469-181.015625s-112.636719-74.98046875-181.015625-74.98046875-132.664062 26.62890575-181.015625 74.98046875-74.980469 112.636719-74.980469 181.015625 26.628906 132.664062 74.980469 181.015625 112.636719 74.976563 181.015625 74.976563 132.664062-26.625 181.015625-74.976563 74.980469-112.636719 74.980469-181.015625zm-255.996094 225.992188c-124.613281 0-225.996094-101.378907-225.996094-225.992188s101.382813-225.996094 225.996094-225.996094 225.996094 101.382813 225.996094 225.996094-101.382813 225.992188-225.996094 225.992188zm0 0"/><path d="m256.5 80.335938c-96.859375 0-175.664062 78.804687-175.664062 175.664062s78.804687 175.660156 175.664062 175.660156 175.660156-78.800781 175.660156-175.660156-78.800781-175.664062-175.660156-175.664062zm0 321.324218c-80.320312 0-145.664062-65.34375-145.664062-145.660156 0-80.320312 65.34375-145.664062 145.664062-145.664062 80.316406 0 145.660156 65.34375 145.660156 145.664062 0 80.316406-65.339844 145.660156-145.660156 145.660156zm0 0"/><path d="m505.800781 403.414062c-6.894531-4.585937-16.207031-2.710937-20.796875 4.1875-20.378906 30.652344-46.253906 56.527344-76.902344 76.90625-6.898437 4.585938-8.773437 13.898438-4.1875 20.792969 2.890626 4.347657 7.652344 6.699219 12.507813 6.699219 2.851563 0 5.734375-.8125 8.289063-2.511719 33.988281-22.597656 62.679687-51.289062 85.277343-85.277343 4.585938-6.898438 2.710938-16.207032-4.1875-20.796876zm0 0"/><path d="m7.195312 108.582031c2.554688 1.699219 5.441407 2.511719 8.292969 2.511719 4.851563 0 9.617188-2.351562 12.503907-6.695312 20.378906-30.648438 46.253906-56.523438 76.90625-76.90625 6.898437-4.585938 8.773437-13.894532 4.1875-20.792969-4.585938-6.898438-13.898438-8.777344-20.796876-4.1875-33.992187 22.597656-62.683593 51.289062-85.277343 85.277343-4.589844 6.898438-2.714844 16.207032 4.183593 20.792969zm0 0"/><path d="m256.5 200.835938c-30.417969 0-55.167969 24.746093-55.167969 55.164062s24.75 55.164062 55.167969 55.164062 55.164062-24.746093 55.164062-55.164062-24.746093-55.164062-55.164062-55.164062zm0 80.328124c-13.878906 0-25.167969-11.289062-25.167969-25.164062 0-13.878906 11.289063-25.167969 25.167969-25.167969 13.875 0 25.167969 11.289063 25.167969 25.167969 0 13.875-11.292969 25.164062-25.167969 25.164062zm0 0"/></svg>