<?xml version="1.0" encoding="iso-8859-1"?>
<!-- Generator: Adobe Illustrator 19.0.0, SVG Export Plug-In . SVG Version: 6.00 Build 0)  -->
<svg version="1.1" id="Layer_1" xmlns="http://www.w3.org/2000/svg" xmlns:xlink="http://www.w3.org/1999/xlink" x="0px" y="0px"
	 viewBox="0 0 463.638 463.638" style="enable-background:new 0 0 463.638 463.638;" xml:space="preserve">
<g transform="translate(0 -540.36)">
	<g>
		<g>
			<path d="M297.298,905.998c-27,0-49,22-49,49c0,27,22,49,49,49c27.1,0,49-22,49-49
				C346.298,927.998,324.298,905.998,297.298,905.998z M297.298,988.998c-18.7,0-34-15.3-34-34s15.3-34,34-34c18.8,0,34,15.3,34,34
				S315.998,988.998,297.298,988.998z"/>
			<path d="M459.898,573.898L459.898,573.898l-38.5-31.8c-1.5-1.3-3.5-1.9-5.5-1.7s-3.8,1.2-5.1,2.8l-15.9,19.9
				c-2.6,3.2-2.1,7.9,1.1,10.5l3.7,3.1l-309.5,336.5c-0.1,0.1-0.2,0.2-0.2,0.3c-4,4.8-9.8,5.6-14.4,1.9c-3.4-3.6-3.6-8.4-0.5-12.3
				c0.1-0.1,0.1-0.2,0.2-0.3l1.2-1.6l3.8-4.6c9.2-10.2,12-22.9,7.9-35c-4.5-13.1-16.7-23.4-30.3-25.7c-12.9-2.2-25.4,2.9-34.2,14.1
				c0,0.1-0.1,0.1-0.1,0.2l-4,5.3c-0.1,0.1-0.1,0.2-0.2,0.3c-12.7,18.7-19.2,40.1-18.3,60.1c0.9,21.5,10,40.4,26.2,54.5l1,0.9
				c0.1,0.1,0.2,0.2,0.3,0.3c15.7,12.6,34.8,19.3,54.3,19.3c2.3,0,4.5-0.1,6.8-0.3c22-1.8,42.2-12,56.9-28.8
				c0.1-0.1,0.2-0.2,0.2-0.3l284.5-358.8l3.1,2.6c1.4,1.1,3,1.7,4.8,1.7c0.3,0,0.5,0,0.8,0c2-0.2,3.8-1.2,5.1-2.8l15.9-19.9
				C463.498,581.098,463.098,576.498,459.898,573.898z M135.098,951.898L135.098,951.898c-25.2,28.6-66.9,32-97.2,7.9l-0.8-0.8
				l-0.1-0.1c-26.1-22.7-28.3-60.8-5.4-94.7l3.8-5.1c6.9-8.7,14.6-9.4,19.9-8.5c8.3,1.4,15.9,7.9,18.7,15.8
				c1.7,4.9,2.2,12.4-4.9,20.2c-0.1,0.1-0.2,0.2-0.2,0.3l-4,4.9c-0.1,0.1-0.2,0.2-0.3,0.4l-1.2,1.6c-7.8,9.9-7,23.4,2,32.4
				c0.2,0.2,0.3,0.3,0.5,0.5c11,9.1,26.3,7.6,35.6-3.5l209.7-228.2l16.8,13.7L135.098,951.898z M337.398,696.998l-16-13l89.5-97.5
				l8.6,6.9L337.398,696.998z M438.098,588.898l-26.9-22.3l6.5-8.2l26.9,22.3L438.098,588.898z"/>
		</g>
	</g>
</g>
<g>
</g>
<g>
</g>
<g>
</g>
<g>
</g>
<g>
</g>
<g>
</g>
<g>
</g>
<g>
</g>
<g>
</g>
<g>
</g>
<g>
</g>
<g>
</g>
<g>
</g>
<g>
</g>
<g>
</g>
</svg>
