<?xml version="1.0" encoding="iso-8859-1"?>
<!-- Generator: Adobe Illustrator 16.0.0, SVG Export Plug-In . SVG Version: 6.00 Build 0)  -->
<!DOCTYPE svg PUBLIC "-//W3C//DTD SVG 1.1//EN" "http://www.w3.org/Graphics/SVG/1.1/DTD/svg11.dtd">
<svg version="1.1" id="Capa_1" xmlns="http://www.w3.org/2000/svg" xmlns:xlink="http://www.w3.org/1999/xlink" x="0px" y="0px"
	 width="320.867px" height="320.867px" viewBox="0 0 320.867 320.867" style="enable-background:new 0 0 320.867 320.867;"
	 xml:space="preserve">
<g>
	<g>
		<path d="M308.886,308.886c27.061-81.695,8.326-175.232-56.675-240.236C187.215,3.654,93.678-15.081,11.983,11.983
			c-27.063,81.695-8.329,175.233,56.672,240.234C133.653,317.212,227.191,335.947,308.886,308.886z M92.076,148.822l22.747-22.747
			L95.42,106.673c-3.107-3.102-3.107-8.143,0-11.245c3.109-3.109,8.14-3.109,11.247,0l19.402,19.4l22.748-22.748
			c3.107-3.107,8.14-3.107,11.247,0c3.107,3.102,3.107,8.145,0,11.247l-22.747,22.748l22.587,22.589l22.745-22.748
			c3.106-3.109,8.14-3.109,11.246,0c3.107,3.102,3.107,8.143,0,11.244l-22.747,22.75l22.587,22.587l22.747-22.747
			c3.112-3.107,8.141-3.107,11.247,0c3.107,3.102,3.107,8.146,0,11.247l-22.747,22.747l20.459,20.454
			c3.106,3.106,3.106,8.145,0,11.246c-1.549,1.554-3.584,2.33-5.619,2.33c-2.04,0-4.074-0.776-5.628-2.33l-20.459-20.453
			l-22.742,22.742c-1.554,1.554-3.594,2.33-5.629,2.33s-4.069-0.776-5.623-2.33c-3.107-3.097-3.107-8.14,0-11.242l22.747-22.747
			l-22.59-22.587L137.151,193.9c-1.553,1.554-3.588,2.33-5.626,2.33c-2.035,0-4.072-0.776-5.626-2.33
			c-3.107-3.097-3.107-8.14,0-11.247l22.748-22.742l-22.587-22.589l-22.748,22.745c-1.554,1.554-3.591,2.33-5.626,2.33
			s-4.073-0.776-5.626-2.33C88.969,156.96,88.969,151.924,92.076,148.822z"/>
	</g>
</g>
<g>
</g>
<g>
</g>
<g>
</g>
<g>
</g>
<g>
</g>
<g>
</g>
<g>
</g>
<g>
</g>
<g>
</g>
<g>
</g>
<g>
</g>
<g>
</g>
<g>
</g>
<g>
</g>
<g>
</g>
</svg>
