<?xml version="1.0" encoding="iso-8859-1"?>
<!-- Generator: Adobe Illustrator 16.0.0, SVG Export Plug-In . SVG Version: 6.00 Build 0)  -->
<!DOCTYPE svg PUBLIC "-//W3C//DTD SVG 1.1//EN" "http://www.w3.org/Graphics/SVG/1.1/DTD/svg11.dtd">
<svg version="1.1" id="Capa_1" xmlns="http://www.w3.org/2000/svg" xmlns:xlink="http://www.w3.org/1999/xlink" x="0px" y="0px"
	 width="465.598px" height="465.598px" viewBox="0 0 465.598 465.598" style="enable-background:new 0 0 465.598 465.598;"
	 xml:space="preserve">
<g>
	<g>
		<path d="M115.257,48.071c-0.459,0.115-28.878,7.401-36.49,33.641c-6.34,21.851-50.968,171.838-72.981,245.814
			c-6.024,20.243,5.278,42.237,25.254,49.112l5.24,1.817c19.976,6.875,41.023-3.979,47.009-24.231l41.654-140.942l-0.574,95.989
			h31.9l48.683-142.089L159.12,35.62L115.257,48.071z"/>
		<polygon points="233.22,84.667 262.213,0 204.007,0 		"/>
		<path d="M348.467,436.997l-5.843-83.442h-43.672c0,0,6.321,6.502,14.114,14.506c7.794,8.023,7.344,20.941-0.994,28.869
			c-8.358,7.918-23.983,5.049-34.913-6.416l-30.944-32.455l-26.669-0.153l-31.078,32.599c-10.94,11.465-26.565,14.334-34.903,6.416
			c-8.348-7.917-8.797-20.846-0.995-28.869l14.114-14.506h-43.672l-5.852,83.442c-1.109,15.797,10.834,28.61,26.679,28.61h177.958
			C337.623,465.617,349.576,452.804,348.467,436.997z"/>
		<path d="M429.327,378.436l5.23-1.816c19.977-6.876,31.279-28.869,25.255-49.123C437.8,253.53,393.181,103.543,386.841,81.692
			c-7.669-26.374-36.021-33.526-36.309-33.593l-44.37-12.613l-93.31,271.805h128.94l-1.435-94.162l41.913,141.075
			C388.285,374.477,409.352,385.312,429.327,378.436z"/>
		<path d="M172.9,28.066c2.591,7.43,10.289,29.548,18.857,54.143l21.314,61.209l11.953-34.903L190.285,7.688
			C184.48,14.478,176.515,23.83,172.9,28.066z"/>
		<path d="M172.642,309.251h22.51l97.097-280.965L275.18,9.945C261.324,50.385,196.978,238.211,172.642,309.251z"/>
		<polygon points="341.63,324.752 270.925,324.752 283.882,338.072 341.63,338.072 		"/>
		<polygon points="123.988,324.752 123.988,338.072 181.735,338.072 194.693,324.752 		"/>
		<path d="M164.303,385.761c2.113,1.999,6.77,0.526,10.414-3.299l35.333-37.045v-14.249l-42.897,44.112
			C163.471,379.067,162.199,383.762,164.303,385.761z"/>
		<path d="M255.548,345.397c9.878,10.366,25.255,26.498,35.334,37.064c3.643,3.825,8.31,5.298,10.423,3.299
			c2.104-1.999,0.832-6.693-2.85-10.48l-42.897-44.121L255.548,345.397z"/>
		<polygon points="240.066,342.528 240.066,321.022 225.551,321.022 225.551,342.452 		"/>
	</g>
</g>
<g>
</g>
<g>
</g>
<g>
</g>
<g>
</g>
<g>
</g>
<g>
</g>
<g>
</g>
<g>
</g>
<g>
</g>
<g>
</g>
<g>
</g>
<g>
</g>
<g>
</g>
<g>
</g>
<g>
</g>
</svg>
