<?xml version="1.0" encoding="iso-8859-1"?>
<!-- Generator: Adobe Illustrator 18.0.0, SVG Export Plug-In . SVG Version: 6.00 Build 0)  -->
<!DOCTYPE svg PUBLIC "-//W3C//DTD SVG 1.1//EN" "http://www.w3.org/Graphics/SVG/1.1/DTD/svg11.dtd">
<svg version="1.1" id="Capa_1" xmlns="http://www.w3.org/2000/svg" xmlns:xlink="http://www.w3.org/1999/xlink" x="0px" y="0px"
	 viewBox="0 0 480.197 480.197" style="enable-background:new 0 0 480.197 480.197;" xml:space="preserve">
<g>
	<path d="M216.187,340.529l-60.002-61.462c-3.919-4.015-9.179-6.153-14.778-6.133c-5.611,0.06-10.812,2.35-14.644,6.448
		c-7.179,7.675-7.272,19.786-0.212,27.571l36.129,39.836c1.194,1.317,1.77,3.018,1.621,4.79c-0.149,1.771-1.002,3.353-2.4,4.451
		c-2.585,2.033-6.355,1.727-8.581-0.695l-41.806-45.481c-2.709-2.947-4.356-6.769-4.638-10.762l-4.988-70.646
		c-0.85-12.036-10.92-21.405-22.967-21.405c-0.059,0-0.119,0-0.178,0c-6.169,0.047-11.945,2.499-16.265,6.904
		s-6.658,10.228-6.584,16.397l1.132,94.75c0.132,11.083,4.255,21.755,11.61,30.049l63.482,71.586
		c2.207,2.488,3.41,5.689,3.389,9.015l-0.235,37.915c-0.022,3.59,2.87,6.518,6.459,6.541c0.014,0,0.028,0,0.042,0
		c3.571,0,6.477-2.884,6.499-6.459l0.235-37.915c0.041-6.537-2.326-12.831-6.663-17.721l-63.482-71.585
		c-5.282-5.956-8.243-13.619-8.337-21.579l-1.132-94.75c-0.032-2.686,0.986-5.222,2.867-7.14s4.396-2.985,7.083-3.006
		c0.026,0,0.052,0,0.078,0c5.245,0,9.63,4.08,10,9.32l4.988,70.646c0.488,6.917,3.342,13.539,8.035,18.644l41.806,45.481
		c6.791,7.387,18.292,8.319,26.184,2.12c4.205-3.303,6.874-8.254,7.323-13.582c0.449-5.328-1.353-10.655-4.945-14.615
		l-36.128-39.836c-2.55-2.812-2.517-7.186,0.076-9.958c1.384-1.48,3.262-2.307,5.289-2.328c2.046-0.041,3.921,0.765,5.337,2.215
		l60.005,61.465c0.388,0.397,0.768,0.801,1.141,1.211c8.91,9.798,12.75,23.751,10.271,37.325l-12.945,70.899
		c-0.645,3.531,1.695,6.917,5.227,7.562c3.533,0.641,6.917-1.695,7.562-5.227l12.946-70.899c3.201-17.534-1.823-35.63-13.441-48.406
		C217.169,341.552,216.682,341.035,216.187,340.529z"/>
	<path d="M417.721,213.945c-4.319-4.405-10.096-6.856-16.265-6.904c-12.15-0.127-22.291,9.308-23.145,21.404l-4.988,70.646
		c-0.282,3.993-1.929,7.815-4.638,10.762l-41.806,45.481c-2.225,2.422-5.997,2.726-8.581,0.695c-1.398-1.099-2.251-2.68-2.4-4.451
		c-0.149-1.772,0.426-3.473,1.621-4.79l36.128-39.836c7.06-7.785,6.967-19.896-0.212-27.571c-3.833-4.098-9.034-6.387-14.645-6.447
		c-5.614-0.036-10.858,2.118-14.777,6.133l-60,61.459c-0.498,0.509-0.985,1.026-1.462,1.552
		c-11.618,12.776-16.643,30.872-13.441,48.406l12.946,70.899c0.645,3.531,4.033,5.87,7.562,5.227
		c3.532-0.645,5.872-4.031,5.227-7.562l-12.945-70.899c-2.479-13.574,1.361-27.527,10.271-37.326
		c0.373-0.41,0.752-0.813,1.143-1.213l60.003-61.462c1.416-1.45,3.322-2.252,5.336-2.215c2.026,0.021,3.905,0.849,5.289,2.329
		c2.593,2.771,2.626,7.145,0.076,9.957l-36.128,39.836c-3.592,3.96-5.394,9.288-4.945,14.615c0.449,5.328,3.118,10.279,7.323,13.582
		c7.891,6.2,19.392,5.268,26.184-2.12l41.806-45.481c4.693-5.105,7.546-11.727,8.035-18.644l4.988-70.647
		c0.37-5.241,4.755-9.32,10-9.32c0.026,0,0.052,0,0.078,0c2.687,0.021,5.202,1.088,7.083,3.006s2.899,4.454,2.867,7.14l-1.132,94.75
		c-0.095,7.959-3.056,15.623-8.337,21.579l-63.481,71.585c-4.338,4.891-6.704,11.185-6.664,17.722l0.235,37.915
		c0.022,3.576,2.928,6.459,6.499,6.459c0.014,0,0.028,0,0.042,0c3.59-0.022,6.481-2.951,6.459-6.541l-0.235-37.915
		c-0.021-3.326,1.183-6.527,3.39-9.015l63.482-71.585c7.354-8.293,11.478-18.964,11.61-30.048l1.132-94.75
		C424.379,224.173,422.04,218.35,417.721,213.945z"/>
	<path d="M383.197,142.778C383.197,64.05,319.147,0,240.419,0C161.692,0,97.642,64.05,97.642,142.778s64.05,142.778,142.777,142.778
		C319.147,285.556,383.197,221.506,383.197,142.778z M344.872,219.703c7.277-42.151,5.848-85.622-4.28-127.254l15.313-8.841
		c9.133,17.753,14.292,37.87,14.292,59.17C370.197,171.55,360.779,198.162,344.872,219.703z M110.642,142.778
		c0-4.202,0.208-8.355,0.6-12.456c37.718,28.539,78.924,52.095,122.677,70.136v40.738c-45.115-13.952-86.597-38.559-120.463-71.506
		C111.617,161.005,110.642,152.003,110.642,142.778z M158.443,87.943c34.622-32.092,76.653-55.718,122.1-68.587
		c12.687,4.135,24.523,10.168,35.166,17.774c-43.543,18.404-84.515,42.314-121.987,71.181L158.443,87.943z M233.919,146.531v39.848
		c-43.044-18.252-83.495-42.015-120.419-70.719c2.41-11.293,6.288-22.049,11.433-32.051L233.919,146.531z M246.919,146.531
		l34.477-19.905c5.846,46.333,5.638,93.194-0.601,139.491c-10.748,3.527-22.107,5.693-33.877,6.276V146.531z M293.574,119.595
		l35.262-20.358c10.538,45.875,10.11,93.941-1.285,139.638c-9.749,8.848-20.849,16.231-32.945,21.812
		C300.3,213.805,299.951,166.416,293.574,119.595z M349.382,72.362l-108.963,62.91l-34.506-19.922
		c37.295-28.145,78.064-51.295,121.345-68.929C335.714,54.049,343.163,62.771,349.382,72.362z M240.419,13
		c5.031,0,9.993,0.298,14.877,0.858c-40.333,14.693-77.459,37.658-108.614,67.295l-15.226-8.791
		C154.604,36.666,194.798,13,240.419,13z M121.33,194.326c32.889,27.596,71.341,48.279,112.589,60.452v17.615
		C183.457,269.892,140.494,238.43,121.33,194.326z"/>
</g>
<g>
</g>
<g>
</g>
<g>
</g>
<g>
</g>
<g>
</g>
<g>
</g>
<g>
</g>
<g>
</g>
<g>
</g>
<g>
</g>
<g>
</g>
<g>
</g>
<g>
</g>
<g>
</g>
<g>
</g>
</svg>
