<?xml version="1.0" encoding="iso-8859-1"?>
<!-- Generator: Adobe Illustrator 17.1.0, SVG Export Plug-In . SVG Version: 6.00 Build 0)  -->
<!DOCTYPE svg PUBLIC "-//W3C//DTD SVG 1.1//EN" "http://www.w3.org/Graphics/SVG/1.1/DTD/svg11.dtd">
<svg version="1.1" id="Capa_1" xmlns="http://www.w3.org/2000/svg" xmlns:xlink="http://www.w3.org/1999/xlink" x="0px" y="0px"
	 viewBox="0 0 374.42 374.42" style="enable-background:new 0 0 374.42 374.42;" xml:space="preserve">
<path id="XMLID_230_" d="M311.252,308.732l6.581,0l-23.023-55.809c-1.896-4.595,0.292-9.856,4.888-11.752
	c4.594-1.896,9.856,0.293,11.752,4.888l28.152,68.242c1.146,2.776,0.83,5.942-0.84,8.438c-1.67,2.496-4.476,3.994-7.479,3.994h0
	l-20.03-0.001c-4.971,0-9-4.03-9-9S306.281,308.732,311.252,308.732L311.252,308.732z M232.538,308.732l-14.44,0h0
	c-4.97,0-9,4.029-9,9c0,4.971,4.029,9,9,9l20.031,0.001c0,0,0,0,0,0c3.424,0,6.551-1.943,8.068-5.012l50.163-101.493
	c0.613-1.24,0.932-2.604,0.932-3.988v-82.179c0-4.971-4.029-9-9-9h-20.003c-3.127,0-6.029,1.623-7.667,4.287l-43.572,70.876
	l-13.06-0.002c0,0,0,0,0,0c-4.97,0-9,4.029-9,8.999s4.028,9,8.999,9.001l18.092,0.002c0,0,0,0,0,0c3.127,0,6.03-1.623,7.667-4.287
	l43.572-70.876h5.972v71.076L232.538,308.732z M255.028,65.517c0-19.176,12.27-35.968,30.532-41.786
	c1.777-0.566,3.686-0.566,5.464,0c18.261,5.817,30.531,22.61,30.531,41.786c0,19.176-12.269,35.969-30.53,41.787
	c-0.889,0.283-1.811,0.425-2.732,0.425s-1.844-0.142-2.732-0.425C267.298,101.485,255.028,84.693,255.028,65.517z M273.028,65.517
	c0,10.321,6.025,19.47,15.264,23.595c9.237-4.125,15.263-13.275,15.263-23.595c0-10.321-6.025-19.47-15.263-23.595
	C279.054,46.048,273.028,55.197,273.028,65.517z M73.128,249.506c12.604,0,24.767-3.19,35.522-9.182v68.481
	c-4.43,0.563-7.854,4.345-7.854,8.928c0,4.971,4.029,9,9,9h15.712c4.971,0,9-4.029,9-9c0-4.583-3.426-8.367-7.857-8.928v-68.481
	c10.756,5.992,22.919,9.183,35.525,9.183c9.917,0,19.543-1.955,28.609-5.811c4.574-1.945,6.705-7.23,4.76-11.805
	c-1.946-4.574-7.23-6.706-11.805-4.76c-6.826,2.903-14.081,4.375-21.564,4.375c-13.114,0-25.592-4.581-35.525-12.971v-97.81
	c0-4.971-4.029-9-9-9s-9,4.029-9,9v97.812c-9.933,8.389-22.41,12.969-35.522,12.969C42.73,231.506,18,206.776,18,176.379
	c0-20.525,11.293-39.225,29.474-48.803c3.817-2.011,5.67-6.448,4.417-10.577c-1.026-3.381-1.547-6.904-1.547-10.473
	c0-15.929,10.22-29.774,25.431-34.451c3.303-1.016,5.732-3.832,6.252-7.248c2.653-17.42,17.968-30.556,35.624-30.556
	c17.657,0,32.972,13.136,35.625,30.556c0.52,3.416,2.95,6.232,6.252,7.248c15.211,4.677,25.431,18.522,25.431,34.451
	c0,3.567-0.521,7.091-1.547,10.475c-1.252,4.128,0.601,8.564,4.417,10.575c8.64,4.552,15.947,11.342,21.133,19.635
	c2.635,4.214,8.188,5.496,12.402,2.859c4.214-2.635,5.495-8.188,2.859-12.402c-5.626-8.998-13.139-16.66-21.963-22.454
	c0.464-2.863,0.698-5.768,0.698-8.688c0-22.038-13.051-41.417-32.993-49.79c-2.731-10.532-8.625-20.072-16.938-27.277
	c-9.813-8.504-22.376-13.188-35.376-13.188c-13,0-25.563,4.684-35.376,13.188c-8.314,7.205-14.207,16.745-16.938,27.277
	c-19.942,8.374-32.993,27.752-32.993,49.79c0,2.92,0.233,5.822,0.697,8.683C12.499,128.657,0,151.508,0,176.379
	C0,216.701,32.805,249.506,73.128,249.506z M372.685,195.713l-48.966-66.965c-2.934-4.012-8.566-4.886-12.577-1.953
	c-4.013,2.934-4.887,8.565-1.953,12.577l47.231,64.592v15.313c0,4.971,4.029,9,9,9s9-4.029,9-9v-18.252
	C374.42,199.115,373.813,197.255,372.685,195.713z M364.685,340.149H9.738c-4.971,0-9,4.029-9,9s4.029,9,9,9h354.946
	c4.971,0,9-4.029,9-9S369.655,340.149,364.685,340.149z"/>
<g>
</g>
<g>
</g>
<g>
</g>
<g>
</g>
<g>
</g>
<g>
</g>
<g>
</g>
<g>
</g>
<g>
</g>
<g>
</g>
<g>
</g>
<g>
</g>
<g>
</g>
<g>
</g>
<g>
</g>
</svg>
